<?xml version="1.0" encoding="UTF-8"?>
<svg id="Layer_1" data-name="Layer 1" xmlns="http://www.w3.org/2000/svg" viewBox="0 0 700 700">
  <defs>
    <style>
      .cls-1 {
        fill: #445238;
      }

      .cls-2 {
        fill: #f5f0e5;
      }
    </style>
  </defs>
  <path class="cls-2" d="M350,700c193.3,0,350-156.7,350-350S543.3,0,350,0,0,156.7,0,350s156.7,350,350,350Z"/>
  <path class="cls-1" d="M465.22,381.01c28.22,21.71,35.45,61.44,17.74,91.48-13.35,22.65-40,32.52-64.77,24.81-25.49-7.93-42.95-30.81-54.99-53.24-7.84,4.87-17.29,4.5-24.42.09-11.46,20.92-25.6,40.06-47.32,50.25-27.67,12.99-60.02,2.76-74.67-24.35-16.26-30.08-8-67.81,19.65-88.85-21.49-5.41-38.82-19.48-47.03-40.28-10.28-26.03-16.65-52.83-22.95-80.17-1.84-11.31-2.39-21.93,1.09-32.72,5.48-16.99,20.44-27.83,38.69-28.03,54.83-.6,110.83,60.84,133.34,109.48,7.67-3.24,15.82-3.52,22.62.73,24.63-46.34,84.46-116.57,139.29-109.74,28.41,3.54,38.16,30.95,33.5,58.75-5.72,27.28-12.11,53.86-22,79.83-8.23,21.6-25.49,36.57-47.78,41.95h.01ZM231.79,456.89c4.85,11.19,14.32,19.01,23.71,21.81,31.78,9.48,57.59-23.01,69.78-52.39l.19-91.44c.01-6.07.39-10.42-2.47-16.3-15.31-31.39-37.81-58.78-65.93-79.7-15.36-11.43-35.63-20.94-54.4-18.72-16.53,1.96-21.26,18.6-17.82,35.27,5.08,24.63,11.39,48.22,19.36,71.93,12.63,37.6,47.23,39.95,83.05,38.85,6.55-.2,11.03,4.13,11.03,9.94,0,6.3-5.55,9.89-11.92,9.36-15.82-1.32-30.51,3.35-42.23,14.11-15.77,14.48-21.12,37.07-12.35,57.28ZM422.34,385.45h-23.6c-5.45,0-9.29-3.45-9.88-8.42-.41-3.53,2.63-10.33,7.84-10.4l37.73-.49c26.76-.35,51.63-9.12,61.21-34.95,9.22-24.89,15.57-50.2,20.75-76.37,1.4-7.07,1.02-14.24-.8-20.89-4.8-17.55-27.32-16.66-45.07-8.9-12.22,5.35-23.08,12.35-33.19,21.3-20.74,18.36-38.2,39.35-52.67,63.03-3.72,6.09-8.41,13.49-8.42,20.22l-.16,94.55c7.22,20.44,22.6,43.95,43.33,53.05,20.11,8.83,42.26-.68,50.6-21.1,9.45-23.15.01-49.47-21.16-62.59-8.02-4.97-16.4-8.04-26.53-8.04h.02ZM357.76,420.05l-.11-87.23c0-3.85-4.27-6.63-7.22-6.34-3.19.31-6.22,3.41-6.22,7.33l.04,87.88c0,3.76,4.38,6.85,7.04,6.53,4.17-.5,6.47-3.27,6.46-8.17h.01Z"/>
</svg>