<?xml version="1.0" encoding="UTF-8"?>
<svg id="Layer_1" xmlns="http://www.w3.org/2000/svg" version="1.1" viewBox="0 0 582 649">
  <!-- Generator: Adobe Illustrator 30.4.0, SVG Export Plug-In . SVG Version: 2.1.4 Build 226)  -->
  <defs>
    <style>
      .st0 {
        fill: #ebe8e2;
        fill-rule: evenodd;
      }

      .st1 {
        font-size: 12.5px;
      }

      .st1, .st2, .st3, .st4 {
        fill: #fff;
        font-family: Arial-BoldMT, Arial;
        font-weight: 700;
        isolation: isolate;
      }

      .st2 {
        font-size: 18px;
      }

      .st3 {
        font-size: 12px;
      }

      .st4 {
        font-size: 10.5px;
      }

      .st5 {
        fill: #e33634;
      }
    </style>
  </defs>
  <g id="denmark-map">
    <path class="st0" d="M280,528v5l4,4v1l3,3v1l1,1v1l1,1v1l5,5h2l1-1h1l2-2h5l2,2h3v-6l-1-1h-3l-1-1h-3l-1-1h-1l-2-2h-1l-3-3h-1l-2-2h-1l-1-1v-1l-5-5h-2l-1,1h-1Z"/>
    <path class="st0" d="M482,540l-1-5-3-4-10,1-5-8h-4l-3,3h-5l-9-4-3,3v3l7,9,2,8,8,6,2,5v4l-3,1-1-2-3-1-2-5-5-5v-4l-2-4-5,1-5-5h-3v5l-2,1,1,12-5,5h-4l-4-4-1-3h-6l-1-1v-5l3-2h3v-2l-2-2-7-2-3-5-9-8-7-1-4,1-2,2-8,1-3,3,1,8,7,8v3l-3,3-5-2h-4v5l9,9h8l10,5,8,7,3,5,7,3,4,4h2v-6l2-2,6-1,2-2,11,1,3-2h4l4,3h2l2-3-1-7,5-5v-3l3-1,4,7v2l-4,5v4l3,3,2,7h4l2-7-1-1v-5l-4-4v-2l5-5,2-7,7-5,3-4,1-10Z"/>
    <path class="st0" d="M343,520h-2v1l-1,1v1l-2,2h-5v3l-2,2h-3l-1,1v3h1l1,1v4l-1,1v1l-1,1v1l-1,1h-1l-1,1h-3v4l3,3v11l1,1v1l1,1h4l1-1v-1l1-1v-2l1-1v-4l1-1v-2l1-1v-2l1-1v-1l1-1v-2l1-1v-2l1-1v-2l1-1v-3l2-2v-1l1-1v-1l1-1v-2l1-1v-3l-2-2v-1Z"/>
    <path class="st0" d="M521,513l-1-1v-1h-1l-1-1h-1l-1-1h-6l-1,1h-10l-1,1v3l-1,1h-5l-3,3v1l-4,4h-3l-2-2h-4v2l1,1v1h1l2,2h2l4,4v1l1,1h2l2-2v-1l7-7v-3l1-1h6l1-1h1l1-1h3l1,1h1l2,2h5l1-1v-6Z"/>
    <path class="st0" d="M128,458h-4l-2,2v1l-1,1v1l-1,1v1l-2,2v1l-1,1v3l-1,1v8l1,1v1l1,1h3l1-1v-4l1-1v-2l2-2h2l1-1v-3l-1-1v-3l1-1v-1l1-1v-4l-1-1Z"/>
    <path class="st0" d="M254,423l-2,2v6l-2,2h-5v5h7l2,3-1,10,2,2v4l1,1-1,7,2,2,2,5-1,3h-5v3l3,4v2l3,4h2v-6l1-1h4l1,1v6l7,11v3l-4,2v3l2,2h4l2-6,7-1,3,2h2l8,7h7l1,3-2,2h-4v2l2,2h7l4,3v7l1,1h4l10-14,1-3-1-6,6-4,3-5v-2l2-2,1-11,1-1v-8l1-1h4l1-5-3-4-6-1-3-2v-2l2-2,5,1v-7l-2-5-7-5-14,2-1-3,5-5v-2h-3l-1,1h-4l-1-1-1-7,4-2v-5l-1-1h-6l-7-5-7-1-5,5-3,1-8-1-2,2-2,5-7,4-7-1-4-5h-4Z"/>
    <path class="st0" d="M333,411v1l-1,1v4l1,1v7l-2,2h-1l-1,1h-1l-1,1v4l1,1h1l2,2h1l2,2h3l4-4h3l1-1v-2l-1-1v-1l-1-1v-2l-2-2v-6l-2-2v-1l-3-3v-1h-3Z"/>
    <path class="st0" d="M536,391l-2,2v1l-2,2v1l-1,1v2l1,1v1l1,1v1l1,1v1l2,2h2l3-3v-1l1-1v-2l-1-1v-1l-1-1v-4l-1-1v-2h-3Z"/>
    <path class="st0" d="M348,346h-3v5l-1,1h-2l-1-1v-1h-2v5l-3,3h-1v1l-1,1v4l3,3v1l1,1v2l-1,1v1l-1,1v1l-1,1v5l2,2h4v-1l1-1v-2l2-2v-1l4-4v-7l2-2v-2l1-1v-8l-1-1v-1l-1-1v-2l-1-1Z"/>
    <path class="st0" d="M497,311l-10,2-8,9-4,1-14,12-18,9,1,4h4l15-7,3,1-1,8-3,2-4-2-5,1,4,11-2,7-16,7-5-4,1-8-5-10,5-5-6-3h-11v3l7,7-29,30-16,2-10-4-5,1,20,26v3l-4,4h-5v2l11,3,2,7,5,4-1,7,2,4-5,7h-5v5l9,7v5l10,9h15l5,6,9-3,8,1,5-3,2,4-3,2-1,5-6,1v2l8,4,3,6h-7l-1,4,20,7,5,4,15-3,2-5-2-8,2-4-4-2,1-5,3,1,5,8h3l3-4-6-8-14,3-3-6,5-1,16-15,13,1,6-3,3-5v-6l-4-4-1-6-8-6-9-1-5-7,6-19,5-6,9-4h5l4,9,4-1,5-9-7-1-3-3v-6l6-5,1-4-4-3-4,4-4-1,5-12,3-1-4-20,11-19-7-9-10-2-11-9ZM412,446h4l1,1v2h2l1,1v3l-2,2h-1l-2,2h-2l-1-1v-1h-2l-1-1v-4l1-1v-1l2-2ZM439,385l1-1h6l2,2v2l-1,1v1l-1,1h-3l-1-1v-1l-1-1h-1l-1-1v-2ZM475,335v-2l2-2h1l1-1h3l1,1v2l-3,3h-4l-1-1Z"/>
    <path class="st0" d="M375,135l-2,2v1l-1,1v3h7l1,1v3l3,3h3l2-2v-4h-7l-1-1v-2l-1-1v-2l1-1v-2h-3l-1,1h-1Z"/>
    <path class="st0" d="M404,104l-1-1h-3l-1,1h-2l-1,1h-5l-1,1h-4l-4,4v1l-2,2v3l1,1h3l3,3v1l1,1v1h3v-1l1-1v-2l3-3v-2l1-1v-2l1-1h1l1-1h5v-5Z"/>
    <path class="st0" d="M362,41l-7,2-15,17-23,7-40,38-12,24-15,14-15,7-30-2-20,9-13-3-41,60-10,52,10,18-8-4-7,4-6,25,5,46-17,40,14,14,4-1-3-11h4l5,7v8l-6,2,5,13h3l-2-14,5-1,13,8,4,10-5,39-7,14v32l7,7,13-2,18,7,9-1,10,12,35-8,9,11,7-12,19,11,6-13-19-29-13-1-1,10-8,2-10-20,5-8,18,1,4-15-5-7,2-20-6-9,17-8,4-9-4-10-16-6-2-5,29,7,21-15-1-15-18-11,2-6,13,5,8,9,24-7,7-16-5-29,19-24,7,2-7,19,6,3,18-16-2,11,5,8,21-27,6-23-4-21-12-2-14,7-21-7-5-8,2-15-7-18,1-31,10-11,3-17,13-22-1-34-7-15,7-17,14-11-1-5ZM226,416l1-1h4l1,1v2l-1,1h-1l-1,1h-2l-1-1v-3ZM116,316h2l1,1h2l1,1h1l2,2v12l1,1h3l2,2v3l1,1v3l-4,4v1l-2,2v1l-1,1v1l-2,2h-3l-1-1h-2l-1-1v-6l-1-1v-1l-1-1v-21l1-1v-4l1-1ZM182,283h3l1,1h2l1,1v3l1,1v4l-3,3h-3l-1-1v-4h-5l-1-1v-2l1-1h2l1-1v-2l1-1ZM304,280h1l1-1h2l1,1v1h2l4,4v5l-1,1v1l-1,1h-1l-1,1h-8l-3-3v-1l-1-1v-2l1-1v-1l1-1v-1l3-3ZM357,260h3l1,1h1l3,3v4l-4,4h-1l-1,1h-2l-5-5v-2l2-2h1l1-1v-2l1-1ZM228,248h2l1,1v2l1,1v2l-1,1h-2l-1-1v-2l-1-1v-2l1-1ZM262,229h3l3,3v1l2,2v2l-1,1h-2v2l-1,1h-3l-1-1v-2l-1-1v-3l-1-1v-2l2-2ZM238,221l1-1h4l1,1v2l-1,1h-4l-1-1v-2ZM189,214v5l2,2v5l-4,4h-3l-1-1h-4l-3,3v1l-3,5v5l4,4v7l-1,1h-5l-4,4h-4l-1-1v-3l2-2v-4l-4-4h-8l-2-3h-1l-5-3h-2l-1-1h-1l-2-2h-4l-1-1v-6l-2-3v-3l1-1h1l1-1v-1l2-2h2l2,2,1,3,4,4h4l1,1v7l3,3h1l2,3h3l1-1h1l2-2h1l2-2v-3l-2-2v-1l-2-2v-1h-2l-1-1v-2l1-1h2l1,1v1h2l1,1h10l1-1h1l7-7v-4l1-1h2l1,1ZM309,162l1-1h2l6,6v2l-1,1h-2l-6-6v-2ZM277,159l-1,3-6,1-4,4-2,6-4,3-3-1v-5l-6-2-9,1-11,7-1,6-6,7,1,5,4,4v11l-5,7v4l2,3,7-2h4l1,1v2l-4,2,2,8v5l-2,3h-2l-3-5-8-1-3,2-2,4v8l-4,3-3-1v-4l-3-3v-3l4-2,6-6,1-17-5-13-4-1-2,7-3,1-3-4h-4l-1-1,1-6-3-3h-4l-3,2h-3l-2-4v-3h-4l-3,7v5l-1,1h-3l-6-3,1-3h4l2-2v-10l1-1h6l2-1,9-9h2l3,2h5l4-2,7-9h2l1,3,7-1,5,3h4l6-5,10-3h14l4-5,4-1,2-2h3l5,3ZM278,160v-2l1-1h1l1-1v-1l1-1v-1l1-1h2l5,5v2l-1,1h-3l-1,1h-6l-1-1Z"/>
  </g>
  <g id="event-markers">
    <g id="marker-aalborg" data-city="aalborg">
      <circle class="st5" cx="312" cy="154" r="42"/>
      <text class="st2" transform="translate(278 156)"><tspan x="0" y="0">Aalborg</tspan></text>
    </g>
    <g id="marker-aarhus" data-city="aarhus">
      <circle class="st5" cx="318.06" cy="300.29" r="42"/>
      <text class="st2" transform="translate(292.06 302.29)"><tspan x="0" y="0">Århus</tspan></text>
    </g>
    <g id="marker-skanderborg" data-city="skanderborg">
      <circle class="st5" cx="262.05" cy="352.41" r="32"/>
      <text class="st4" transform="translate(229.67 354.41)"><tspan x="0" y="0">Skanderborg</tspan></text>
    </g>
    <g id="marker-odense" data-city="odense">
      <circle class="st5" cx="278.47" cy="480.12" r="42"/>
      <text class="st2" transform="translate(245.46 482.12)"><tspan x="0" y="0">Odense</tspan></text>
    </g>
    <g id="marker-roskilde" data-city="roskilde">
      <circle class="st5" cx="448.59" cy="432.66" r="32"/>
      <text class="st3" transform="translate(423.58 434.66)"><tspan x="0" y="0">Roskilde</tspan></text>
    </g>
    <g id="marker-kobenhavn" data-city="kobenhavn">
      <circle class="st5" cx="520.83" cy="411.3" r="38"/>
      <text class="st1" transform="translate(486.8 413.3)"><tspan x="0" y="0">København</tspan></text>
    </g>
  </g>
</svg>