<?xml version="1.0" encoding="UTF-8"?>
<svg id="Layer_1" data-name="Layer 1" xmlns="http://www.w3.org/2000/svg" viewBox="0 0 700 700">
  <defs>
    <style>
      .cls-1 {
        fill: #445238;
      }

      .cls-2 {
        fill: #f5f0e5;
      }
    </style>
  </defs>
  <path class="cls-2" d="M350,700c193.3,0,350-156.7,350-350S543.3,0,350,0,0,156.7,0,350s156.7,350,350,350Z"/>
  <path class="cls-1" d="M440.02,485.2c-40.79,44.04-102.69,51.33-152.29,22.86-30.46-17.48-54.58-50.55-59.68-88.54-2.88-21.47.31-42.32,7.7-62.83,9.14-25.38,21.34-48.34,35.18-71.57,21.52-36.1,45.06-70.02,69.52-104.09,2.5-3.48,5.01-5.98,8.87-6.03,4.09-.05,6.77,2.14,9.27,5.6,20.06,27.83,39.67,55.11,57.72,84.4,20.23,32.85,44.62,74.97,52.92,111.78,8.79,38.99-1.76,78.8-29.19,108.42h-.02ZM393.55,496.37c31.41-14.43,53.46-43.53,58.95-77.14,5.9-36.13-11.44-72.92-28.98-104.72-21.82-39.56-46.47-76.47-73.92-113.5-30.22,41.79-59.42,84.66-82.86,130.76-16.8,33.75-28.99,68.82-15.48,105.11,21.32,57.27,86.11,85.29,142.28,59.49h.01Z"/>
  <path class="cls-1" d="M367.83,459.06c27.37-7.32,44.08-33.97,42.55-62.55-.32-6.01,4.71-10.3,9.88-10.04,6.16.31,8.67,5.01,8.88,11.03,1.22,35.76-20.12,68.28-54.15,79.14-5.74,1.83-11.65,1.26-13.97-4.49-2.2-5.45.62-11.42,6.81-13.08h0Z"/>
</svg>