<?xml version="1.0" encoding="UTF-8"?>
<svg id="Layer_1" data-name="Layer 1" xmlns="http://www.w3.org/2000/svg" viewBox="0 0 700 700">
  <defs>
    <style>
      .cls-1 {
        fill: #445238;
      }

      .cls-2 {
        fill: #f5f0e5;
      }
    </style>
  </defs>
  <path class="cls-2" d="M350,700c193.3,0,350-156.7,350-350S543.3,0,350,0,0,156.7,0,350s156.7,350,350,350Z"/>
  <path class="cls-1" d="M516.72,510l-332.57.02c-4.57,0-6.68-4.21-6.55-7.43.16-3.84,3-6.72,7.19-6.92l44.08-.03.04-36.32-55.59-.02c-2.18,0-4.91-1.68-5.89-3.01-.98-1.33-1.95-5.37-1.11-6.95l26.05-49.26-11.27-.21c-2.11-.04-5.14-1.64-6.08-3.2-1.21-1.99-1.42-5.59-.3-7.68l25.54-47.41c-2.93-.28-6.03-.99-7.65-2.75-1.89-2.05-2.55-6-1.05-8.74l37.09-67.57c1.74-3.17,4.16-5.14,7.6-5.15s5.58,2.36,7.33,5.48l26.84,47.82c2.15,3.84,1.2,8.61-2.8,10.28-4,1.67-7.37-.2-9.54-4.05l-21.82-38.73-27.18,48.92c2.92.38,5.88,1.1,7.53,2.81,1.68,1.74,2.67,5.79,1.43,8.1l-25.59,47.55,10.21.09c2.1.02,5.31,1.6,6.36,3.07,1.38,1.94,2.28,6,1.08,8.26l-25.46,47.86,51.19.02c4.11.12,6.8,3.04,7.01,7.13l.04,43.67,100.17-.02v-50.43l-91.29.02c-2.66-.31-5.07-1.41-6.44-3.27-1.12-1.52-1.85-5.4-.63-7.61l42.8-77.95-17.42-.24c-2.4-.03-5.36-1.23-6.54-2.89-1.53-2.14-2.07-5.66-.65-8.22l39.1-70.94-9.33-.69c-4.31-.32-6.89-6.6-4.61-10.66l54.34-96.99c1.93-3.44,3.74-5.73,7.57-5.76,3.83-.03,5.73,2.3,7.64,5.7l54.35,96.98c1.17,2.09.48,6.25-.65,7.99-1,1.54-3.97,3.03-6.17,3.1l-7.3.22,39.11,71.07c1.2,2.19.93,5.65-.15,7.66-.86,1.6-3.9,3.38-6.11,3.4l-18.24.17,42.68,78.06c1.28,2.33.56,6.08-.95,8.02-1.3,1.68-4.07,2.73-6.99,2.84l-90.15-.02v50.44h99.93s.03-43.59.03-43.59c.4-4.31,3.62-7.14,7.91-7.18l50.64-.04-25.25-47.45c-1.23-2.3-.95-5.95.33-8.03,1.03-1.67,4.36-3.71,6.56-3.71l10.64.02-25.67-47.16c-1.23-2.26-.5-6.37.74-8.03,1.87-2.48,4.96-3.26,8.34-2.92l-27.37-49.33-22.6,39.99c-1.83,3.24-5.95,3.81-8.72,2.62-3.15-1.36-5.28-5.87-3.32-9.39l27.11-48.53c1.49-2.67,3.31-4.58,6.06-5.31,1.95-.52,6.23.33,7.5,2.62l37.9,68.59c1.53,2.76,1.57,6.45.15,8.9-1.42,2.45-4.81,3.76-8.2,3.87l25.9,47.87c.88,1.62.28,5.84-.67,7.35-.95,1.51-4.02,3.04-6.28,3.07l-11.09.18,25.75,48.62c.89,1.69.57,5.5-.47,7.13-.89,1.39-3.29,2.75-5.53,3.52h-56.4l.02,36.35,44.1-.03c3.85.03,6.52,2.96,7.04,6.09.4,2.4-.76,8.26-5.36,8.26l-.02.02ZM437.07,430.8l-42.27-77.06c-1.36-2.47-.92-6.36.55-8.42,1.1-1.53,4-3.08,6.25-3.11l17.6-.29-38.21-69.36c-2.68-4.86-2.4-9.78,3.15-12.69l10.06-.07-44.27-78.56-43.87,78.28,6.64.12c2.57.05,5.78,1.6,6.82,3.46,1.48,2.65,1.58,5.78.11,8.43l-38.95,70.42,18.25.29c2.24.04,5.3,2.08,6.23,3.91.78,1.55,1.28,5.14.23,7.05l-42.75,77.62,174.44-.04v.02Z"/>
</svg>