<?xml version="1.0" encoding="UTF-8"?>
<svg id="Layer_1" data-name="Layer 1" xmlns="http://www.w3.org/2000/svg" viewBox="0 0 700 700">
  <defs>
    <style>
      .cls-1 {
        fill: #445238;
      }

      .cls-2 {
        fill: #f5f0e5;
      }
    </style>
  </defs>
  <path class="cls-2" d="M350,700c193.3,0,350-156.7,350-350S543.3,0,350,0,0,156.7,0,350s156.7,350,350,350Z"/>
  <path class="cls-1" d="M222.06,522.44c-2.23,3.2-8.04,3.06-10.98,1.47-2.71-1.46-5.68-6.92-3.08-10.64l46.28-66.48-14.58-19.62c-34.09-59.73-16.24-130.26,33.23-176.63,52.08-48.81,137.31-64.55,206.9-75.42,4.99-.78,10,2.24,10.57,7.53,4.16,38.74,4.8,76.71,1.28,115.7-4.46,49.5-21.57,102.37-57.78,137.16-43.74,42.12-113.86,56.69-166.54,21.92l-45.29,65h0ZM412.32,319.74c5.34-.32,8.23,3.96,8.64,8.14.27,2.79-2.19,8.16-6.03,8.41l-54.77,3.62-33.95,40.55,49.6-2.93c4.08-.24,7.58,3.28,8.34,6.61.95,4.18-.99,7.97-4.9,10.21l-67.58,4.17-34.42,45.58c17.14,11.04,35.54,15.89,55.51,15.78,23.37-.42,45.46-6.48,65.62-18.16,46.2-28.63,68.45-79.51,75.33-132.53,5.01-38.65,5.02-76.6,1.61-116.2-52.79,8.9-109.94,19.66-157.78,45.96-48.47,27.77-82.14,74.05-78.32,131.28,1.58,23.19,9.8,44.91,25.32,62.99l34.17-45.13-.32-70.19c.42-4.7,4.19-7.68,8.6-7.6,3.16.05,7.43,3.36,7.49,7.33l.69,49.53c31.44-38.23,63.37-74.33,96.49-110.41,3.68-4.01,9.11-2.94,12.04.26,3.33,3.64,2.78,8.37-.67,12.22l-47.14,52.71,36.44-2.18v-.02Z"/>
</svg>