<?xml version="1.0" encoding="UTF-8"?>
<svg id="Layer_1" data-name="Layer 1" xmlns="http://www.w3.org/2000/svg" viewBox="0 0 700 700">
  <defs>
    <style>
      .cls-1 {
        fill: #445238;
      }

      .cls-2 {
        fill: #f5f0e5;
      }
    </style>
  </defs>
  <path class="cls-2" d="M350,700c193.3,0,350-156.7,350-350S543.3,0,350,0,0,156.7,0,350s156.7,350,350,350Z"/>
  <path class="cls-1" d="M470.31,466.05c13.27,8.31,26.53,11.57,41.61,10.37,3.91-.31,6.58,4.37,6.82,7.22.25,3.04-1.24,8.23-4.99,8.85-15.93,2.67-31.19-1.59-45.5-8.68l-24.98-12.38c-16.69-5.61-34.28-2.64-49.66,6.13-25.96,14.79-56.88,16.27-82.94.72-21.82-13.02-47.06-12.9-68.71,1-15.96,10.25-33.68,16.22-52.79,13.38-5.11-.76-6.84-5.85-5.94-10.16.9-4.31,5.13-6.95,10.12-6.45,12.05,1.21,23.54-1.3,33.82-7.55l19.58-10.37c13.81-7.31,29.45-8.24,44.69-5.25v-250.27c-7.39-5.1-9.24-14.14-4.44-21.09,4.67-6.75,14.15-8.7,21.1-3.77,6.58,4.67,8.56,13.67,2.98,21.98,25.23-5.15,50.42-2.01,73.14,10.97,40.53,23.15,68.06,8.3,75.3,12.98,1.69,1.09,3.49,4.67,3.49,7.29l-.03,74.11c0,4.39-4.5,6.24-7.72,7.76-17.91,8.42-36.43,12.56-56.32,11.04l-30.92-4.47c-21.13-3.05-41.73-1.52-60.4,8.64l.03,130.16,15.38,7.68c20.49,10.23,42.16,8.53,61.7-2.64,29.15-16.68,56.96-15.1,85.56,2.82l.02-.02ZM395.57,306.78c18.19,1.51,34.89-.63,50.92-8.37l.05-58.48c-24.14,3.79-46.9-1.51-67.71-13.07-21.77-12.55-46.54-16.22-71.18-8.56l.03,90.8c17.65-7.23,36.07-10.47,55.13-7.47l32.75,5.15h0Z"/>
  <path class="cls-1" d="M447.53,515.32c-17.69-6.37-36.9-5.73-54.45,1.39-26.47,10.74-53.91,11.09-80.69.75-17.25-6.66-36.28-9.73-53.78-3.3l-22.67,8.34c-5,1.84-9.97-.25-11.52-4.75-1.55-4.5.47-9.45,5.43-11.17l21.52-7.47c21.15-7.34,42.69-6.13,63.65,1.8,17.81,6.74,36.51,10.3,55.23,5.46l26.81-8.47c20.9-6.61,42.52-4.68,62.39,4.21l12.75,4.41c4.41,1.53,6.6,5.09,6.31,9.32-.27,4.01-4.69,8.96-9.48,7.23l-21.51-7.75h.01Z"/>
</svg>