<?xml version="1.0" encoding="UTF-8"?>
<svg id="Layer_1" data-name="Layer 1" xmlns="http://www.w3.org/2000/svg" viewBox="0 0 700 700">
  <defs>
    <style>
      .cls-1 {
        fill: #445238;
      }

      .cls-2 {
        fill: #f5f0e5;
      }
    </style>
  </defs>
  <path class="cls-2" d="M350,700c193.3,0,350-156.7,350-350S543.3,0,350,0,0,156.7,0,350s156.7,350,350,350Z"/>
  <path class="cls-1" d="M358.81,443.03c-.02,4.92-4.19,7.49-7.75,7.71-3.76.23-8.93-2.38-8.96-7.12l-.18-31.21c-33.57-3.75-63.03-23.76-77.99-54.17-21.31-43.32-5.27-88.32,20.3-126.65,16.31-24.44,36.36-45.03,58.22-64.59,4.01-3.58,9.56-6.02,14.09-1.67l31.3,30.09c26.25,27.92,51.22,65.45,57.5,103.62,8.52,57.22-29.02,106.49-86.38,113.34l-.15,30.65ZM358.84,249.03l.09,70.82,18.62-17.42c3.77-3.53,8.41-5.19,12.89-1.57,3.09,2.5,4.02,7.76,1.59,12.07l-33.16,31.32.03,50.53c47.27-6.07,78.62-50.74,68.05-97.62-9.57-44.04-42.29-83.06-76.41-112.96-33.35,28.95-66.75,68.62-76.61,111.61-11.35,47,19.56,92.54,68.05,98.86l.02-50.33-32.92-31.25c-2.61-4.06-2.17-8.99,1.05-11.98s8.4-3.14,11.81.08l20,18.92.06-70.16c0-5.14,3.37-8.52,8.18-8.84,3.79-.25,8.64,2.92,8.65,7.91h.01Z"/>
  <path class="cls-1" d="M465.8,468.16c-17.43-10.1-40.1-9.73-57.21.6-36.34,21.91-80.33,21.88-116.61-.27-16.94-10.34-40.05-10.05-57.03-.38-12.8,7.29-25.08,12.73-40.07,12.43-5.6-.11-9.88-3.42-9.88-8.96,0-5.12,4.17-9.28,9.89-8.9,10.9.71,20.02-3.12,29.03-8.63,25.11-15.34,56.22-14.07,81.08,1.35,14.86,9.22,31.31,12.53,48.69,12.14,16.65-.37,31.11-5.31,45.08-13.62,26.1-15.51,57.4-13.83,82.33,2.55,17,11.17,33.13.67,34.42,14.37.48,5.14-3.38,9.44-9.11,9.59-14.94.38-27.4-4.61-40.61-12.27Z"/>
  <path class="cls-1" d="M463.31,525.95c-18.22-11.72-40.29-14.31-59.27-3.1-16.97,10.01-35.26,15.79-55.46,15.11-16.86-.57-33.2-3.95-47.55-12.9-18.44-11.5-41.01-12.74-59.71-1.23-17.73,10.91-48.53,18.34-48.08,2.46.14-5.07,4.3-8.92,9.92-8.75,10.67.31,19.72-3,28.59-8.56,22.13-13.86,49.99-15.03,72.89-1.84,14.43,8.31,29.01,13.46,46.13,13.08,14.55-.32,28.6-3.15,41.05-10.93,24.83-15.51,55.15-14.99,79.48,1.15,17.61,11.69,33.43,2.07,35.76,14.13.79,4.08-1.42,10.25-6.82,10.51-12.73.62-25.52-1.8-36.91-9.13h-.02Z"/>
</svg>