<?xml version="1.0" encoding="UTF-8"?>
<svg id="Layer_1" data-name="Layer 1" xmlns="http://www.w3.org/2000/svg" viewBox="0 0 700 700">
  <defs>
    <style>
      .cls-1 {
        fill: #445238;
      }

      .cls-2 {
        fill: #f5f0e5;
      }
    </style>
  </defs>
  <path class="cls-2" d="M350,700c193.3,0,350-156.7,350-350S543.3,0,350,0,0,156.7,0,350s156.7,350,350,350Z"/>
  <path class="cls-1" d="M188.58,503.11c-4.68-.51-7.16-3.29-7.55-7.15-.31-3.17,2.13-8.05,6.26-7.61,13.12,1.42,25.38-.32,37.83-4.78l11.85-4.24c-1.31-29.17-10.29-59.23-27.65-83.24-.65-.89-.58-3.48.11-4.28,2.8-3.22,9.24-.28,13.55,4.82,17.69,20.9,26.63,51.72,28.26,78.81l9.61-1.55v-107.77c-8.88-3.15-15.78-11.21-15.8-21.14l-.12-59c1.16-9.65,6.67-17.52,15.87-20.57l.19-20.21c.04-3.91,3.41-6.62,6.51-6.92,3.47-.34,7.55,2.19,7.56,6.31l.09,20.67c9.48,3.27,15.51,11.4,16.51,21.54l-.3,58.93c-.05,9.77-7.02,17.49-16.19,20.35l-.04,107.48,8.59,1.21c.8-21.54,6.25-42.24,17.86-60.15,6.39-9.86,14.78-13.3,16.74-8.88.65,1.47-.02,3.6-1.18,5.31-13.41,19.79-19.54,43.54-19.78,67.25l18.8,6.51c8.55,2.96,17.5,4.2,26.57,4.24l-.02-182.38c-9.83-2.78-18.33-11.49-18.37-22.51l-.32-80.58c1.07-11.19,7.94-20.62,18.67-23.37l.14-23.24c.02-4.15,3.62-6.93,7.09-6.97s7.16,2.82,7.19,6.97l.15,23.05c11.17,3.39,18.54,13.37,18.46,25.22l-.12,78.15c-.02,11.3-8.2,20.31-18.41,23.26v181.24l23.66-7.52c14.14-4.49,28.29-7.66,42.96-5.9l-.04-108.34c-9.24-3.31-15.86-11.39-15.89-21.18l-.15-56.51c-.16-10.67,6.13-19.7,15.98-23.1l.13-20.03c.03-4.09,3.5-6.88,6.86-6.96,3.62-.09,7.28,2.61,7.3,6.79l.12,20.3c9.88,3.08,15.67,12.11,16.02,22.28v55.54c0,10.51-6.03,19.61-16.09,22.89v110.81l8.95,2.22c1.55-31.51,10.12-71.77,30.36-95.3,4.81-5.6,11.41-6.83,12.9-4.3.42.72.6,2.21.74,3.62-9.52,13.37-15.92,27.78-20.55,43.54-5.61,19.02-9.04,37.94-9.25,58.05,15.66,5.08,32.14,5.62,48.09,1.54,4.88-1.25,9.14,1.76,9.61,6.23.54,5.18-3.03,7.4-7.66,8.45-21.45,4.88-42.23,3.09-62.43-5.48-21.64-9.18-44.57-9.17-66.22-.01-25.67,10.85-53.22,11.19-78.98.23-21.87-9.31-44.96-9.63-67.01-.55-15.29,6.3-31.03,9.71-47.98,7.88l-.04.03ZM360.94,283.75l-.07-79.24c0-6.16-5.63-10.49-11.07-10.52-5.13-.02-10.96,4.42-10.96,10.53l-.02,78.07c0,5.94,5.31,9.89,10.42,10.32,5.47.46,10.38-2.98,11.71-9.17h-.01ZM276.67,343.62l-.08-56.41c0-5.11-4.83-8.24-9.02-7.91-4.19.33-7.93,3.52-7.93,8.39v56.48c0,4.99,4.56,8.23,8.66,8.22,4.43,0,8.38-3.33,8.37-8.77ZM439.45,342.98v-54.51c0-5.21-3.13-9-8.05-9.22-4.23-.19-8.95,2.86-8.95,8.11l-.02,57.13c0,5,5.03,8.08,8.94,7.93,4.9-.19,8.08-3.89,8.08-9.45h0Z"/>
  <path class="cls-1" d="M387.26,539.81l-24.64,8.22c-19.84,4.44-39.39,1.24-58.01-6.59-16.52-6.95-33.99-9.51-51.29-4.46l-24.09,9.09c-4.36,1.64-9.12-.32-10.25-4.25-1.4-4.89,1.21-8.53,5.9-10.22l25.08-9.03c19.55-5.37,39.97-3.32,58.57,4.83,23.42,10.26,47.39,9.95,70.66-.25,23.52-10.31,49.26-9.98,72.62.14,7.97,3.45,15.46,5.69,24.03,6.84,4.37.59,6.36,5.15,5.52,8.84-1,4.34-5.01,6.38-9.72,5.59-8.94-1.5-17.25-4.3-25.65-7.84-18.99-8.01-39.16-8.6-58.73-.91Z"/>
</svg>